<svg width="28" height="23" viewBox="0 0 28 23" fill="none" xmlns="http://www.w3.org/2000/svg">
<g clip-path="url(#clip0_20_1822)">
<path d="M25.8125 1.60156H1.4375C0.918945 1.60156 0.5 2.02051 0.5 2.53906V21.2891C0.5 21.8076 0.918945 22.2266 1.4375 22.2266H25.8125C26.3311 22.2266 26.75 21.8076 26.75 21.2891V2.53906C26.75 2.02051 26.3311 1.60156 25.8125 1.60156ZM24.6406 4.84766V20.1172H2.60938V4.84766L1.80078 4.21777L2.95215 2.73828L4.20605 3.71387H23.0469L24.3008 2.73828L25.4521 4.21777L24.6406 4.84766ZM23.0469 3.71094L13.625 11.0352L4.20312 3.71094L2.94922 2.73535L1.79785 4.21484L2.60645 4.84473L12.6143 12.626C12.9021 12.8496 13.2561 12.9709 13.6206 12.9709C13.9851 12.9709 14.3391 12.8496 14.627 12.626L24.6406 4.84766L25.4492 4.21777L24.2979 2.73828L23.0469 3.71094Z" fill="#FF5722"/>
</g>
<defs>
<clipPath id="clip0_20_1822">
<rect width="27" height="22" fill="white" transform="translate(0.5 0.914062)"/>
</clipPath>
</defs>
</svg>
